<?xml version="1.0" encoding="utf-8"?>
<!-- Generator: Adobe Illustrator 16.0.0, SVG Export Plug-In . SVG Version: 6.00 Build 0)  -->
<!DOCTYPE svg PUBLIC "-//W3C//DTD SVG 1.1//EN" "http://www.w3.org/Graphics/SVG/1.1/DTD/svg11.dtd">
<svg version="1.1" id="Layer_1" xmlns="http://www.w3.org/2000/svg" xmlns:xlink="http://www.w3.org/1999/xlink" x="0px" y="0px"
	 width="21.5px" height="17px" viewBox="0 0 21.5 17" enable-background="new 0 0 21.5 17" xml:space="preserve">
<g>
	<path d="M21,0h-2.5c-0.229,0-0.43,0.156-0.484,0.378L17.109,4L0.5,4.016c-0.154,0-0.3,0.071-0.395,0.193
		c-0.094,0.121-0.128,0.28-0.09,0.429l2,7.984C2.071,12.844,2.271,13,2.5,13h13c0.229,0,0.43-0.156,0.484-0.379l1.998-7.989
		c0.002-0.007,0.004-0.014,0.006-0.021L18.891,1H21c0.275,0,0.5-0.224,0.5-0.5S21.275,0,21,0z M15.109,12H2.89L1.141,5.015L16.859,5
		L15.109,12z"/>
	<circle cx="4.793" cy="15.206" r="1.794"/>
	<circle cx="13.208" cy="15.206" r="1.794"/>
</g>
</svg>
