<?xml version="1.0" encoding="utf-8"?>
<!-- Generator: Adobe Illustrator 16.0.0, SVG Export Plug-In . SVG Version: 6.00 Build 0)  -->
<!DOCTYPE svg PUBLIC "-//W3C//DTD SVG 1.1//EN" "http://www.w3.org/Graphics/SVG/1.1/DTD/svg11.dtd">
<svg version="1.1" id="Ebene_1" xmlns="http://www.w3.org/2000/svg" xmlns:xlink="http://www.w3.org/1999/xlink" x="0px" y="0px"
	 width="15.75px" height="18px" viewBox="0 0 15.75 18" enable-background="new 0 0 15.75 18" xml:space="preserve">
<g>
	<path fill="#333333" d="M13.051,6.074c0.223-0.225,0.223-0.562,0-0.786c-0.227-0.226-0.564-0.226-0.789,0L8.438,9.113v-8.55
		C8.438,0.224,8.213,0,7.875,0c-0.113,0-0.337,0.112-0.45,0.112c0,0.112-0.112,0.338-0.112,0.45v8.55L3.487,5.288
		c-0.225-0.226-0.562-0.226-0.788,0c-0.225,0.225-0.225,0.562,0,0.786l5.175,5.176L13.051,6.074z"/>
	<path fill="#333333" d="M15.75,18H0v-7.988c0-0.225,0.225-0.449,0.563-0.449c0.337,0,0.562,0.225,0.562,0.449v6.863h13.5v-6.863
		c0-0.225,0.225-0.449,0.562-0.449c0.336,0,0.562,0.225,0.562,0.449L15.75,18L15.75,18z"/>
</g>
</svg>
