<?xml version="1.0" encoding="utf-8"?>
<!-- Generator: Adobe Illustrator 16.0.0, SVG Export Plug-In . SVG Version: 6.00 Build 0)  -->
<!DOCTYPE svg PUBLIC "-//W3C//DTD SVG 1.1//EN" "http://www.w3.org/Graphics/SVG/1.1/DTD/svg11.dtd">
<svg version="1.1" id="Layer_1" xmlns="http://www.w3.org/2000/svg" xmlns:xlink="http://www.w3.org/1999/xlink" x="0px" y="0px"
	 width="52.715px" height="22px" viewBox="0 0 52.715 22" enable-background="new 0 0 52.715 22" xml:space="preserve">
<g>
	<path id="u_2_" d="M19.721,17.682h-1.985v-1.15c-0.753,0.863-1.391,1.299-2.087,1.299c-0.61,0-1.034-0.287-1.246-0.809
		c-0.129-0.316-0.221-0.809-0.221-1.535v-8.36h1.985v7.838c0,0.443,0,0.627,0,0.73c0.047,0.293,0.171,0.4,0.424,0.4
		c0.38,0,0.724-0.33,1.145-0.922V7.126h1.985V17.682z"/>
	<path id="o_2_" d="M12.719,10.575c0-1.128-0.227-1.975-0.627-2.508C11.563,7.345,10.733,7.05,9.897,7.05
		c-0.946,0-1.666,0.295-2.194,1.017C7.296,8.6,7.078,9.456,7.078,10.584l-0.002,3.754c0,1.121,0.194,1.896,0.601,2.424
		c0.528,0.721,1.385,1.102,2.221,1.102s1.707-0.381,2.236-1.102c0.4-0.527,0.585-1.303,0.585-2.424V10.575z M10.733,14.547
		c0.104,1.045-0.22,1.562-0.836,1.562s-0.94-0.518-0.836-1.562v-4.181c-0.104-1.045,0.22-1.535,0.836-1.535s0.941,0.489,0.837,1.535
		L10.733,14.547z"/>
	<path id="y_2_" d="M4.882,11.934v5.748H2.791v-5.748c0,0-2.165-7.047-2.612-8.36h2.194L3.84,9.078L5.3,3.573h2.194L4.882,11.934z"
		/>
	<g>
		<path d="M40.143,8.805c-0.312,0-0.669,0.165-0.985,0.477l-0.002,6.337c0.316,0.316,0.675,0.477,0.987,0.477
			c0.545,0,0.791-0.4,0.791-1.445v-4.493C40.934,9.112,40.688,8.805,40.143,8.805z"/>
		<path d="M47.059,8.805c-0.632,0-0.899,0.267-0.899,1.243v1.156l1.776-0.002v-1.141C47.936,9.096,47.686,8.805,47.059,8.805z"/>
		<path d="M52.225,4.713c0,0-0.306-2.141-1.241-3.083c-1.186-1.237-2.517-1.243-3.126-1.316C43.49,0,36.94,0,36.94,0h-0.014
			c0,0-6.55,0-10.917,0.314C25.4,0.387,24.07,0.393,22.884,1.63c-0.937,0.943-1.24,3.083-1.24,3.083s-0.312,2.514-0.312,5.028v2.356
			c0,2.514,0.312,5.027,0.312,5.027s0.304,2.141,1.24,3.084c1.187,1.238,2.746,1.197,3.44,1.328
			c2.496,0.238,10.609,0.312,10.609,0.312s6.557-0.01,10.924-0.324c0.609-0.072,1.94-0.078,3.126-1.316
			c0.936-0.943,1.241-3.084,1.241-3.084s0.312-2.514,0.312-5.027V9.741C52.536,7.227,52.225,4.713,52.225,4.713z M28.186,17.682
			h-2.091V5.664H23.9V3.68l6.584-0.002v1.985h-2.299V17.682z M35.709,17.682h-1.985v-1.15c-0.753,0.863-1.391,1.299-2.087,1.299
			c-0.609,0-1.034-0.287-1.246-0.809c-0.129-0.316-0.22-0.809-0.22-1.535V7.231h1.985v7.734c0,0.443,0,0.627,0,0.73
			c0.046,0.293,0.171,0.4,0.423,0.4c0.38,0,0.725-0.33,1.145-0.922V7.231h1.985V17.682z M42.92,14.547
			c0,0.965-0.083,1.646-0.209,2.09c-0.253,0.775-0.804,1.18-1.557,1.18c-0.673,0-1.362-0.404-1.994-1.188l-0.003,1.053h-1.881V3.678
			h1.881l-0.002,4.565c0.611-0.752,1.303-1.18,1.999-1.18c0.753,0,1.26,0.435,1.512,1.217c0.127,0.42,0.254,1.096,0.254,2.085
			V14.547z M49.925,12.77h-3.766v1.877c-0.007,0.965,0.268,1.449,0.917,1.449c0.466,0,0.737-0.252,0.846-0.758
			c0.018-0.104,0.014-0.555,0.014-1.314h1.985v0.297c0,0.609-0.05,1.041-0.067,1.23c-0.063,0.42-0.212,0.799-0.442,1.133
			c-0.523,0.758-1.3,1.133-2.288,1.133c-0.989,0-1.743-0.355-2.29-1.07c-0.402-0.521-0.659-1.299-0.659-2.408V10.68
			c0-1.116,0.234-1.979,0.636-2.507c0.548-0.714,1.301-1.092,2.267-1.092c0.949,0,1.702,0.378,2.232,1.092
			c0.396,0.528,0.616,1.345,0.616,2.461V12.77z"/>
	</g>
</g>
</svg>
